# xmcd
#
# Track frame offsets: 
#        150
#        30991
#        70101
#        74721
#        100314
#        124954
#        147147
#        178967
#        195527
#        214330
#        242956
#        275206
#        293082
#        319892
#
# Disc length: 4595 seconds
#
# Revision: 0
# Processed by: cddbd v1.5.1PL0 Copyright (c) Steve Scherf et al.
# Submitted via: ExactAudioCopy v0.95a4
#
DISCID=e911f10e
DTITLE=Flávio Brasil -  - Título Desconhecido
DYEAR=2004
DGENRE=Coutry
TTITLE0=Flavio Brasil - EU VOU TE BUSCAR
TTITLE1=Flavio Brasil - EU VOU DANÇAR
TTITLE2=Flavio Brasil - A FESTA
TTITLE3=Flavio Brasil - A FESTA VAI COMEÇAR
TTITLE4=Flavio Brasil - A FESTA VAI COMEÇAR
TTITLE5=Flavio Brasil - SAPATILHA 37
TTITLE6=Flavio Brasil - TENTEI TE ESQUECER
TTITLE7=Flavio Brasil - AGORA VEM
TTITLE8=Flavio Brasil - AMANHA VOU LA HOJE
TTITLE9=Flavio Brasil - MARIOLA
TTITLE10=Flavio Brasil - POEIRA
TTITLE11=Flavio Brasil - CARLA
TTITLE12=Flavio Brasil - ANA JULIA
TTITLE13=Flavio Brasil - FLOR DO REGGAE
EXTD=
EXTT0=
EXTT1=
EXTT2=
EXTT3=
EXTT4=
EXTT5=
EXTT6=
EXTT7=
EXTT8=
EXTT9=
EXTT10=
EXTT11=
EXTT12=
EXTT13=
PLAYORDER=
